PathFileType	4	(X/Y/Z)	C:\Users\Basilio\Documents\Thesis Gigler\squatting_fais\c3dfiles\047\SJ_pre4\markers_experimental.trc
DataRate	CameraRate	NumFrames	NumMarkers	Units	OrigDataRate	OrigDataStartFrame	OrigNumFrames
200.000000	200.000000	4	61	mm	200.000000	980	1569
Frame#	Time	FHD			LBHD			RBHD			C7			T10			CLAV			LSHO			LUUPA			LMUPA			LDUPA			LLEP			LMEP			LRAD			LUL			LRFIN			RSHO			RUPA1			RMUPA			RDUPA			RLEP			RMEP			RRAD			RUL			RUFIN			LASI			RASI			USACR			LSACR			RSACR			LTHI1			LTHI2			LTHI3			LTHI4			LLFC			LMFC			LTIB1			LTIB2			LTIB3			LTIB4			LLMAL			LMMAL			LMT1			LMT2			LMT5			RTHI			RTHI2			RTHI3			RTHI4			RLFC			RMFC			RTIB1			RTIB2			RTIB3			RTIB4			RLMAL			RMMAL			RHEE			RMT1			RMT2			RMT5			*60			
		X1	Y1	Z1	X2	Y2	Z2	X3	Y3	Z3	X4	Y4	Z4	X5	Y5	Z5	X6	Y6	Z6	X7	Y7	Z7	X8	Y8	Z8	X9	Y9	Z9	X10	Y10	Z10	X11	Y11	Z11	X12	Y12	Z12	X13	Y13	Z13	X14	Y14	Z14	X15	Y15	Z15	X16	Y16	Z16	X17	Y17	Z17	X18	Y18	Z18	X19	Y19	Z19	X20	Y20	Z20	X21	Y21	Z21	X22	Y22	Z22	X23	Y23	Z23	X24	Y24	Z24	X25	Y25	Z25	X26	Y26	Z26	X27	Y27	Z27	X28	Y28	Z28	X29	Y29	Z29	X30	Y30	Z30	X31	Y31	Z31	X32	Y32	Z32	X33	Y33	Z33	X34	Y34	Z34	X35	Y35	Z35	X36	Y36	Z36	X37	Y37	Z37	X38	Y38	Z38	X39	Y39	Z39	X40	Y40	Z40	X41	Y41	Z41	X42	Y42	Z42	X43	Y43	Z43	X44	Y44	Z44	X45	Y45	Z45	X46	Y46	Z46	X47	Y47	Z47	X48	Y48	Z48	X49	Y49	Z49	X50	Y50	Z50	X51	Y51	Z51	X52	Y52	Z52	X53	Y53	Z53	X54	Y54	Z54	X55	Y55	Z55	X56	Y56	Z56	X57	Y57	Z57	X58	Y58	Z58	X59	Y59	Z59	X60	Y60	Z60	X61	Y61	Z61	

981	4.9	-51.20613098144533	1957.376220703125	-865.4951782226565	-214.0332336425782	1924.660278320313	-943.896179199219	-233.631820678711	1928.125610351563	-797.0881958007815	-273.8496093750001	1764.0087890625	-870.8869628906252	-278.6078796386719	1445.904418945313	-870.4477539062502	-108.0397720336914	1731.529296875	-877.0122070312502	-167.8853149414063	1760.608154296875	-1042.743530273438	-279.2635803222657	1641.150390625	-1162.487670898438	-242.5114440917969	1615.703491210938	-1186.050903320313	-293.2965393066407	1585.924438476563	-1202.506469726563	-288.9629821777344	1520.19970703125	-1238.199829101563	-338.7180786132813	1492.928344726563	-1158.286499023438	-189.0511779785157	1343.411743164063	-1079.394287109375	-156.2112579345703	1310.097900390625	-1142.070922851563	-129.9057922363282	1324.011352539063	-1044.115966796875	-181.4727325439453	1760.853271484375	-713.6660766601564	-297.0458984375001	1635.974243164063	-593.7465209960939	-265.1345825195313	1610.231689453125	-566.0945434570314	-315.4951171875001	1580.52685546875	-554.5270385742189	-308.7584533691407	1513.04443359375	-519.3560791015626	-353.2898254394532	1480.14697265625	-595.0801391601564	-143.9801330566407	1380.874267578125	-660.4106445312501	-139.658935546875	1332.579833984375	-601.0087890625001	-96.14929962158206	1333.656616210938	-698.9972534179689	-130.9491424560547	1213.840454101563	-989.8260498046877	-133.0085906982422	1207.746215820313	-761.0792846679689	-291.9819335937501	1321.168579101563	-876.7095947265627	-304.8512268066407	1293.122802734375	-906.7788696289065	-301.4934692382813	1289.590087890625	-848.6599731445315	-249.7712554931641	1077.159545898438	-1087.315795898438	-221.2740631103516	998.7446289062502	-1099.197387695313	-172.4599151611328	997.0357666015627	-1087.259887695313	-253.5794830322266	946.8621826171877	-1100.720336914063	-287.5088500976563	774.7071533203127	-1089.74609375	-235.6012420654297	742.4848022460939	-980.5647583007815	-251.5811767578126	574.1252441406251	-1045.479736328125	-278.6157836914063	545.8800048828126	-1124.40087890625	-251.7518768310547	534.6506347656251	-1087.973999023438	-264.5335083007813	452.2891845703126	-1073.307495117188	-331.9852905273438	362.3736267089844	-1125.50341796875	-286.8711547851563	364.9823608398438	-1046.0498046875	-197.4981231689454	258.9962463378907	-1086.732788085938	-206.1439208984376	257.5261840820313	-1130.725830078125	-263.2823486328126	252.9238281250001	-1161.1787109375	-281.5179443359376	1040.565673828125	-672.4592895507814	-251.1397552490235	982.303161621094	-659.1058959960939	-217.9943542480469	980.5928344726565	-661.6503906250001	-284.2383728027344	905.3001098632815	-670.9739379882814	-290.9933776855469	756.6908569335939	-683.3865966796876	-234.6477661132813	741.8692016601564	-793.6362915039065	-266.6347351074219	625.6083374023439	-684.9086303710939	-345.6632080078126	552.2541503906251	-667.2031250000001	-299.3639831542969	547.8364257812501	-665.9090576171876	-283.9990844726563	496.6371459960939	-693.1542968750001	-371.4072875976563	351.0124511718751	-685.3850097656251	-309.0395812988282	361.5080871582032	-755.5007934570314	-409.2345581054689	329.6015930175782	-755.4748535156251	-216.2566223144532	264.9539489746094	-701.2408447265626	-228.2572937011719	267.6680908203126	-657.5228271484376	-296.7525939941407	247.8593139648438	-627.2351074218751	nan	nan	nan	
982	4.905	-48.34592056274415	1946.9482421875	-866.1079101562502	-211.6204833984376	1914.915771484375	-943.5850219726565	-231.6837921142579	1918.3232421875	-796.793640136719	-272.6843872070313	1754.252319335938	-870.8961181640627	-278.7684326171876	1436.719482421875	-870.570739746094	-107.3641662597657	1720.20849609375	-877.2256469726565	-166.9195098876953	1749.77392578125	-1043.480224609375	-279.0466003417969	1631.138061523438	-1162.730102539063	-242.0330505371094	1605.10400390625	-1186.425170898438	-293.0366821289063	1575.652221679688	-1202.7998046875	-288.9499511718751	1509.96728515625	-1238.473022460938	-339.0849914550782	1482.93212890625	-1158.442993164063	-190.3854522705078	1332.690795898438	-1079.40380859375	-157.2540740966797	1299.362915039063	-1142.017700195313	-131.291015625	1313.093383789063	-1044.176147460938	-180.8563385009766	1749.977172851563	-713.1943969726564	-296.8156127929688	1625.663696289063	-593.7092895507814	-264.6647949218751	1599.73828125	-566.2098388671876	-315.2366027832032	1570.080322265625	-554.4596557617189	-308.6826477050782	1502.75927734375	-519.7515869140626	-353.6419677734376	1470.181640625	-595.1552734375001	-144.4348449707032	1369.729125976563	-660.5473022460939	-140.7482452392578	1320.9619140625	-601.6223144531251	-97.07546234130862	1322.109252929688	-699.3031005859376	-131.1628112792969	1203.50146484375	-989.6716918945315	-134.9940185546875	1197.197631835938	-760.7916870117189	-293.3168334960938	1311.643188476563	-876.869079589844	-306.2695312500001	1283.692626953125	-907.032409667969	-303.1858215332032	1280.254516601563	-848.957214355469	-250.5841369628907	1067.367553710938	-1087.78271484375	-221.5060119628907	989.413024902344	-1099.953491210938	-172.5856475830078	987.743591308594	-1087.694213867188	-252.9705352783204	937.0701904296877	-1101.70654296875	-285.8515014648438	764.6876220703126	-1091.487670898438	-233.628402709961	732.1403198242189	-981.9478149414065	-249.8875885009766	564.4355468750001	-1047.299682617188	-278.4031372070313	535.1596069335939	-1125.039306640625	-250.340560913086	524.2522583007814	-1089.482055664063	-262.5499572753907	442.5501403808595	-1074.874267578125	-330.8567199707032	352.6325683593751	-1126.962158203125	-285.6225280761719	354.8318176269532	-1047.628295898438	-193.1878814697266	252.6297607421876	-1089.82470703125	-202.9522247314454	250.1055297851563	-1133.7841796875	-259.1361999511719	245.5684509277344	-1164.419799804688	-282.6540222167969	1030.73046875	-671.7133178710939	-251.7015380859376	972.339538574219	-657.9598999023439	-218.2728424072266	971.412780761719	-660.7548828125001	-283.6432800292969	895.350036621094	-669.4236450195314	-288.6650085449219	746.6516113281251	-681.0139770507814	-231.7307128906251	732.0700683593751	-791.0620727539065	-264.2557678222657	615.4554443359376	-682.2702026367189	-343.8115539550782	542.2843627929689	-664.8696899414064	-297.2034912109376	537.6520385742189	-663.6962280273439	-281.6438598632813	486.6844177246095	-691.3240356445314	-369.5648498535157	340.8974609375001	-683.5476684570314	-307.4411315917969	351.8706970214844	-753.6649780273439	-407.6918945312501	319.2981567382813	-753.7279663085939	-213.7940979003907	256.0741271972657	-699.3551025390626	-226.3567810058594	258.6473388671876	-655.7611083984376	-294.6833801269532	238.3960113525391	-625.3968505859376	nan	nan	nan	
983	4.91	-45.99865341186524	1935.753540039063	-865.7913208007815	-209.4890289306641	1904.8984375	-943.4266357421877	-229.2087554931641	1908.245239257813	-796.8934326171877	-271.3859252929688	1743.842529296875	-871.188659667969	-279.2918395996094	1427.1025390625	-870.9027099609377	-106.1606750488282	1708.754760742188	-877.256530761719	-165.7024688720703	1738.38427734375	-1044.099243164063	-277.9122009277344	1620.438354492188	-1163.213134765625	-241.4188537597657	1594.311889648438	-1186.689575195313	-292.7943725585938	1565.289184570313	-1203.052978515625	-289.0084838867188	1499.384765625	-1238.760620117188	-339.4104919433594	1472.8662109375	-1158.606811523438	-192.2131347656251	1321.805541992188	-1079.196655273438	-158.8799896240235	1288.177734375	-1142.072021484375	-132.2749481201172	1302.09765625	-1044.357543945313	-179.9939422607422	1738.913452148438	-713.0311279296876	-296.2968139648438	1615.022583007813	-593.6674194335939	-264.0812072753907	1588.832641601563	-566.4591064453126	-314.8625488281251	1559.65185546875	-554.4978637695314	-308.7955017089844	1492.039794921875	-519.9923095703126	-353.9007263183594	1459.981079101563	-595.3088378906251	-145.2370758056641	1358.367553710938	-660.4667968750001	-142.3233947753907	1309.091796875	-601.8319702148439	-97.9704284667969	1310.653442382813	-700.2909545898439	-134.0819396972657	1192.726318359375	-989.649841308594	-136.8786163330078	1186.624267578125	-761.0505981445314	-294.3623046875001	1301.881469726563	-877.043640136719	-307.6839599609376	1274.128295898438	-907.1240844726565	-305.6353759765626	1271.6240234375	-849.0237426757815	-251.5530242919922	1057.429931640625	-1088.423461914063	-221.4857177734376	979.4768676757815	-1100.7080078125	-172.8206787109375	978.283142089844	-1088.210815429688	-252.7937622070313	927.1019287109377	-1102.943481445313	-283.7449645996094	754.6864013671876	-1093.276489257813	-231.8706359863282	722.2636718750001	-984.2188720703127	-248.0608825683594	554.4444580078126	-1049.002807617188	-276.3230285644532	525.0300292968751	-1126.767578125	-248.7690124511719	514.2490844726564	-1090.748413085938	-260.8811645507813	432.4965820312501	-1076.492065429688	-329.1821899414063	342.6759643554688	-1129.04931640625	-283.9797668457032	344.4264526367188	-1049.277587890625	-189.824447631836	244.3152313232422	-1092.759765625	-198.2266845703126	243.3031005859376	-1136.9033203125	-255.4828033447266	238.099838256836	-1167.120849609375	-283.5960998535157	1020.590270996094	-671.1044921875001	-252.0271606445313	962.8198852539065	-657.6050415039064	-218.8737487792969	961.9768676757815	-659.3953247070314	-283.4872741699219	885.1931152343752	-667.4998168945314	-286.1217651367188	736.4348754882814	-678.5400390625001	-228.8282165527344	721.5454101562501	-788.3562011718752	-261.8244018554688	604.9842529296876	-679.6281127929689	-341.4418334960938	531.8352661132814	-662.6886596679689	-295.0405883789063	527.2655639648439	-661.4255371093751	-279.7835693359376	476.1424560546876	-688.8898315429689	-368.0405883789063	330.6019287109376	-681.7765502929689	-305.5761413574219	342.1256408691407	-752.1473999023439	-405.944305419922	309.0517578125001	-751.8511962890626	-211.6242065429688	247.2282257080079	-697.7583007812501	-224.3129272460938	249.4700927734376	-653.6554565429689	-292.4288024902344	228.8857574462891	-623.5537109375001	nan	nan	nan	
984	4.915	-43.68527221679688	1924.506958007813	-865.5905761718752	-207.2342834472657	1894.389892578125	-943.4197998046877	-227.209457397461	1897.743408203125	-796.831970214844	-270.0444641113282	1733.33740234375	-871.3833618164065	-280.4696960449219	1416.851440429688	-871.1097412109377	-104.9521789550782	1697.294555664063	-877.426452636719	-164.7325286865235	1726.840087890625	-1044.734741210938	-277.5236206054688	1609.663696289063	-1163.4638671875	-241.4976196289063	1583.103637695313	-1186.721435546875	-292.5635681152344	1554.486450195313	-1203.3583984375	-289.3674926757813	1488.586669921875	-1238.944702148438	-339.8327026367188	1462.424560546875	-1158.822265625	-192.6897277832032	1311.151123046875	-1079.316162109375	-160.22705078125	1276.74853515625	-1142.1630859375	-133.6839294433594	1290.71728515625	-1044.410522460938	-179.0881958007813	1727.374389648438	-712.8551635742189	-295.4509277343751	1604.33642578125	-593.8059082031251	-263.6544799804688	1577.713134765625	-566.7022705078126	-314.4414062500001	1548.849243164063	-554.8336181640626	-308.8928833007813	1481.157836914063	-520.3848876953126	-354.3736572265626	1449.489868164063	-595.7412109375001	-145.5326080322266	1347.018432617188	-660.3757934570314	-143.8294525146485	1296.92626953125	-601.8948974609376	-99.06574249267581	1298.54931640625	-700.4790649414064	-136.5433502197266	1181.622436523438	-989.0339355468752	-139.0453186035157	1175.635864257813	-760.7871704101564	-295.7913513183594	1292.118774414063	-877.1665649414065	-309.1019287109376	1264.333251953125	-907.173522949219	-307.3172912597657	1261.7138671875	-849.0828857421877	-252.5094299316407	1047.175903320313	-1088.989501953125	-221.7876586914063	969.8252563476565	-1101.474975585938	-173.1676635742188	969.043395996094	-1088.845458984375	-252.5501251220704	917.049011230469	-1103.834594726563	-281.7198486328126	744.4105834960939	-1095.059692382813	-229.7111358642579	711.8986206054689	-985.651550292969	-246.7273864746094	543.9376220703126	-1050.483276367188	-274.4466247558594	514.4672241210939	-1128.286499023438	-246.7556457519532	503.3509521484376	-1092.521362304688	-259.7125854492188	421.9938964843751	-1077.854370117188	-327.1995544433594	332.5849609375001	-1131.399047851563	-282.8128662109376	333.3939514160157	-1050.88525390625	-186.3610382080078	236.8447265625001	-1095.595092773438	-195.2422637939454	236.6526184082032	-1139.689086914063	-251.2264099121094	230.404525756836	-1170.740966796875	-284.9797058105469	1010.18994140625	-670.1253662109376	-252.7033691406251	952.9739379882815	-655.2959594726564	-219.3807220458985	952.5284423828127	-658.3145751953126	-282.7881469726563	874.8083496093752	-665.8766479492189	-283.3582458496094	725.9899291992189	-676.1954956054689	-225.8756408691407	711.1471557617189	-785.5645751953127	-259.0397033691407	594.3721923828126	-677.0280151367189	-339.1247558593751	521.5611572265626	-660.7254638671876	-292.5423278808594	516.7077026367189	-659.2704467773439	-277.5332336425782	465.5356445312501	-686.8161010742189	-366.3465881347657	320.6691894531251	-679.9760742187501	-304.1555786132813	332.0117492675782	-750.4558105468751	-404.7652587890626	298.0167541503907	-749.8829956054689	-209.4369812011719	238.4661712646485	-696.1927490234376	-222.084701538086	240.7472381591797	-652.2692260742189	-289.9410095214844	219.4659118652344	-621.7728271484376	nan	nan	nan	
